<svg width="51" height="15" viewBox="0 0 51 15" fill="none" xmlns="http://www.w3.org/2000/svg">
<g id="Group">
<path id="path10" d="M0.000944025 0.00596801C3.04251 0.00596801 6.08343 0.00862889 9.125 0.00463867C9.12827 0.835934 9.13154 1.66723 9.12369 2.49919C6.97582 2.49852 4.82729 2.49719 2.67876 2.49985C2.68006 3.5433 2.67745 4.5874 2.68006 5.63085C4.56101 5.62686 6.44196 5.63018 8.32225 5.62952C8.33271 6.45815 8.32028 7.28679 8.32879 8.11542C6.44588 8.11343 4.56363 8.11742 2.68137 8.11343C2.67679 10.0793 2.67876 12.0451 2.68006 14.011C1.78833 14.001 0.896601 14.001 0.0048695 14.0103C-0.00494413 9.34241 0.00356099 4.67386 0.000944025 0.00596801Z" fill="#3F3F3F"/>
<path id="path12" d="M10.8991 14.0104C10.8958 9.3405 10.8952 4.67062 10.8998 0.000732422C14.0427 0.010708 17.1864 0.00538825 20.33 0.00339314C20.3307 0.835354 20.3267 1.66731 20.332 2.49861C18.0624 2.49861 15.7922 2.49462 13.5226 2.50127C13.5298 3.47754 13.5233 4.45448 13.5259 5.43142C15.6103 5.4261 17.6941 5.42943 19.7785 5.42943C19.7706 6.2574 19.7798 7.08603 19.7726 7.914C17.6908 7.916 15.6083 7.91733 13.5265 7.91267C13.5213 9.11107 13.5318 10.3095 13.5213 11.5072C15.8936 11.5152 18.2659 11.5085 20.6388 11.5105C20.6447 12.3418 20.6447 13.1731 20.6388 14.0051C17.3925 14.0077 14.1454 13.9964 10.8991 14.0104Z" fill="#3F3F3F"/>
<path id="path14" d="M22.6522 0.000732422C23.5969 0.00804782 24.5416 0.0100429 25.4864 0.000732422C27.1907 3.25475 28.8943 6.50878 30.6019 9.7608C30.6078 6.50944 30.6071 3.25808 30.6019 0.00738319C31.4347 0.00272794 32.2676 0.00871407 33.1004 0.00405882C33.1043 4.67195 33.1037 9.33983 33.1011 14.0077C32.21 14.0011 31.3189 14.0051 30.4285 14.0051C28.6804 10.6726 26.9283 7.34207 25.171 4.01423C25.1717 7.34606 25.1723 10.6772 25.1704 14.0091C24.331 14.0017 23.4909 13.9984 22.6509 14.011C22.6568 9.34116 22.6541 4.67062 22.6522 0.000732422Z" fill="#3F3F3F"/>
<path id="path16" d="M35.6583 0.00341797C37.604 0.00940329 39.5497 0.00341716 41.4954 0.00674234C42.5625 0.0240333 43.6551 0.32995 44.4774 1.04619C45.3391 1.73251 45.8422 2.76731 46.1569 3.81075C46.4225 4.76108 46.5193 5.75199 46.5357 6.73757C46.4971 8.25984 46.2858 9.81868 45.5942 11.1887C45.1611 12.1377 44.4395 12.9563 43.5353 13.4611C42.8726 13.8275 42.1156 13.9818 41.3672 14.0018C39.466 14.0111 37.5641 13.9944 35.6629 14.0104C35.6498 9.34118 35.6589 4.67197 35.6583 0.00341797ZM38.3099 2.4441C38.3027 5.48398 38.306 8.52385 38.3079 11.5637C39.1539 11.5597 39.9992 11.5637 40.8451 11.5617C41.1912 11.5524 41.5445 11.5085 41.8637 11.3662C42.482 11.1069 42.921 10.5449 43.2121 9.95102C43.7035 8.86834 43.8108 7.64867 43.7787 6.47089C43.7493 5.34232 43.5805 4.13395 42.8484 3.23749C42.4081 2.68285 41.6793 2.49863 41.0106 2.45407C40.1104 2.43745 39.2101 2.4574 38.3099 2.4441Z" fill="#3F3F3F"/>
<path id="path18" d="M48.3248 14.0136C48.315 9.34243 48.3163 4.67121 48.3242 0C49.2146 0.0133007 50.1057 0.00332502 50.9961 0.00399005C51 4.67055 51.002 9.33777 50.9954 14.005C50.105 14.009 49.2146 13.9917 48.3248 14.0136Z" fill="#3F3F3F"/>
</g>
</svg>
